<svg width="13" height="10" viewBox="0 0 13 10" fill="none" xmlns="http://www.w3.org/2000/svg">
<path fill-rule="evenodd" clip-rule="evenodd" d="M12.9545 4.80726C12.9264 4.7376 12.8818 4.67583 12.8245 4.62726L8.69448 0.697259C8.46298 0.471515 8.09647 0.462789 7.85448 0.677259C7.74307 0.779785 7.67885 0.923706 7.67695 1.0751C7.67506 1.2265 7.73566 1.37198 7.84448 1.47726L7.85448 1.48726L10.9845 4.45726H0.594481C0.386426 4.44482 0.188625 4.54875 0.0808392 4.72714C-0.0269464 4.90554 -0.0269464 5.12898 0.0808392 5.30737C0.188625 5.48577 0.386426 5.5897 0.594481 5.57726H10.9845L7.85448 8.54726C7.74307 8.64978 7.67885 8.79371 7.67695 8.9451C7.67506 9.0965 7.73566 9.24198 7.84448 9.34726C8.07384 9.5723 8.43977 9.57671 8.67448 9.35726C8.68448 9.35726 8.68448 9.34726 8.69448 9.34726L12.8345 5.41726C12.9958 5.25778 13.0434 5.01596 12.9545 4.80726Z" fill="white"/>
</svg>
