<svg width="585" height="346" viewBox="0 0 585 346" fill="none" xmlns="http://www.w3.org/2000/svg">
<g clip-path="url(#clip0_56_1931)">
<path d="M425.031 161.673C413.938 172.107 399.236 176.612 384.899 180.033C370.563 183.454 355.808 186.247 343.093 194.23C323.42 206.546 311.595 229.238 298.043 249.08C293.491 255.751 288.416 262.423 281.509 266.015C268.952 272.515 253.935 267.212 241.849 259.8C229.762 252.387 218.251 242.695 204.595 239.958C169.12 232.945 139.505 274.567 103.507 275.822C93.6181 276.164 83.7814 273.313 74.6249 269.208C53.8527 259.914 34.7026 242.01 30.0982 218.063C24.9706 191.379 38.6791 165.037 52.9633 142.686C77.1887 104.713 106.49 67.8796 146.046 51.1736C159.022 45.6999 172.73 42.564 186.491 40.0552C213.856 35.0377 245.302 33.4982 265.76 53.9104C274.655 62.8051 280.62 75.1208 290.666 82.419C306.572 93.9935 327.867 89.6602 345.971 83.0462C364.075 76.4322 382.911 67.7656 401.642 71.9279C437.85 80.0243 454.122 134.248 425.031 161.673Z" fill="#DBB7F8"/>
<path d="M280.339 115.174C290.305 107.624 302.888 103.314 316.713 104.039C329.924 104.745 343.033 107.556 356.233 106.801C419.334 103.188 452.577 29.0854 516.034 28.7615C526.153 28.7092 536.727 31.1231 544.193 37.9479C583.884 74.2507 512.129 123.043 504.399 156.314C502.48 164.557 503.144 174.442 509.728 179.743C527.643 194.265 556.96 202.636 542.225 232.522C524.673 268.196 475.573 279.903 439.579 279.964C401.555 280.026 362.441 269.597 329.628 250.362C302.704 234.582 266.101 205.403 259.178 173.12C254.175 150.102 263.497 127.983 280.339 115.174Z" fill="#90EFF5" fill-opacity="0.3"/>
<path d="M422.522 318.795C423.042 322.284 423.858 325.624 425.12 328.964C425.268 329.335 425.417 329.706 425.788 329.855C423.487 330.894 421.038 332.156 418.588 332.749C417.178 333.12 415.619 333.343 414.283 332.749C413.986 332.601 413.764 332.452 413.689 332.081C413.689 329.632 412.799 327.999 411.463 325.921C414.803 324.659 419.85 321.17 422.522 318.795Z" fill="#FDB790"/>
<path d="M435.214 317.756C435.956 321.171 436.402 324.659 436.402 328.148C436.402 328.519 436.402 328.964 436.105 329.187C438.629 329.335 441.301 329.632 443.898 329.335C445.383 329.187 446.867 328.89 447.981 327.851C448.203 327.628 448.352 327.331 448.278 327.034C447.461 324.733 447.684 322.878 448.129 320.502C444.492 320.502 438.48 319.018 435.214 317.756Z" fill="#FDB790"/>
<path d="M422.151 0.375732H134.757C129.561 0.375732 125.331 4.60648 125.331 9.80214V215.55C125.331 220.746 129.561 224.977 134.757 224.977H246.538V277.453H304.952V224.977H422.151C427.347 224.977 431.577 220.746 431.577 215.55V9.80214C431.577 4.60648 427.347 0.375732 422.151 0.375732Z" fill="#00305E"/>
<path d="M417.252 212.136H139.656C134.757 212.136 130.749 208.128 130.749 203.229V14.2555C130.749 9.35671 134.757 5.34863 139.656 5.34863H417.252C422.151 5.34863 426.159 9.35671 426.159 14.2555V203.303C426.159 208.128 422.151 212.136 417.252 212.136Z" fill="white"/>
<path d="M139.507 132.494C141.363 134.424 143.887 135.685 146.484 135.611C149.305 135.537 151.903 133.83 153.536 131.38C155.169 129.005 155.911 126.036 155.911 123.067C155.911 121.954 155.837 120.766 155.465 119.727C154.797 118.02 153.461 116.833 152.051 115.793C148.117 112.973 140.101 111.414 137.058 116.461C134.237 121.063 136.093 129.005 139.507 132.494Z" fill="#2B499E"/>
<path d="M112.935 271.07C109.966 274.929 110.115 277.082 112.787 281.164C113.529 282.277 114.42 283.242 115.607 283.984C119.986 286.657 123.178 283.02 127.557 280.273C139.878 272.48 151.977 262.163 158.434 249.174C164.892 236.184 168.529 221.859 170.607 207.46C171.72 199.518 172.24 190.685 166.747 184.451C161.7 178.661 153.016 177.325 146.41 181.11C137.503 186.232 135.351 198.033 135.054 208.351C134.609 221.414 137.281 231.805 139.433 244.646C135.054 248.06 115.904 267.061 112.935 271.07Z" fill="#79A2D3"/>
<path d="M330.114 282.945H221.302C219.817 282.945 218.556 281.757 218.556 280.199C218.556 278.714 219.817 277.453 221.302 277.453H330.188C331.672 277.453 332.934 278.64 332.934 280.199C332.86 281.683 331.598 282.945 330.114 282.945Z" fill="#2B499E"/>
<path d="M185.081 185.638C190.202 207.682 180.033 237.743 176.768 248.654C167.267 280.496 156.133 307.068 155.614 308.255C154.872 309.888 153.536 311.373 151.754 311.744C148.563 312.412 143.664 309.814 142.699 306.623C142.031 304.619 142.476 302.021 142.625 299.942C143.218 292.446 144.703 284.949 146.187 277.527C147.523 270.698 149.008 263.87 150.567 257.041C151.16 254.443 151.754 251.846 152.422 249.248C152.645 248.209 153.832 245.611 153.536 244.572C133.05 175.172 166.228 178.067 170.83 177.845C175.432 177.622 180.108 179.626 183.002 183.263C183.893 184.376 184.784 184.376 185.081 185.638Z" fill="#A3C2EF"/>
<path d="M142.031 316.865C146.336 316.494 150.567 319.76 151.383 323.991C151.68 320.205 151.903 316.346 153.016 312.709C153.387 311.373 153.907 309.963 153.981 308.552C153.981 305.509 151.309 302.614 148.266 302.54C145.148 302.392 144.332 304.396 144.332 306.919C144.183 310.482 143.738 313.748 142.031 316.865Z" fill="#FDB790"/>
<path d="M136.538 320.354C136.835 319.834 137.206 319.389 137.503 318.944C138.542 317.311 139.656 315.752 140.843 314.193C141.363 313.525 141.882 312.857 142.55 312.338C143.664 311.521 145.222 311.224 146.558 311.67C147.894 312.041 149.008 313.154 149.527 314.416C149.899 315.381 149.973 316.494 150.195 317.608C150.715 320.428 152.348 322.284 154.426 324.214C155.688 325.401 155.317 327.925 155.391 329.632C155.465 333.12 155.539 338.168 159.696 339.355C162.591 340.172 154.426 343.512 155.688 346.258H147.301C142.847 342.176 144.183 334.902 141.585 330.3C140.101 327.702 137.28 326.069 136.093 323.323C135.499 322.21 135.944 321.245 136.538 320.354Z" fill="#7774F7"/>
<path d="M152.645 336.015C153.016 336.461 153.387 336.98 153.832 337.351C155.391 338.687 157.469 338.984 159.548 338.984C161.403 338.984 162.962 340.617 162.739 342.398C162.739 342.547 162.665 342.621 162.665 342.77C162.294 344.18 161.181 345.293 159.845 345.813C158.509 346.332 156.95 346.258 155.614 345.813C152.274 344.774 152.125 339.504 152.645 336.015Z" fill="#7774F7"/>
<path d="M149.082 336.609C147.82 332.972 148.34 328.964 147.227 325.327C145.742 320.577 138.097 316.791 135.945 321.541C135.796 322.135 135.87 322.803 136.093 323.323C137.281 326.069 140.101 327.702 141.586 330.3C144.258 334.976 142.179 341.879 146.707 346.258H158.731C158.583 346.109 152.422 346.258 149.082 336.609Z" fill="#B4B3FF"/>
<path d="M231.618 34.9975L159.264 42.4532L167.039 117.908L239.393 110.452L231.618 34.9975Z" fill="#D93F58"/>
<path d="M404.772 37.5029H256.263V112.882H404.772V37.5029Z" fill="#4CB3EF"/>
<path d="M206.977 99.2416C209.797 97.9056 212.766 97.0891 214.547 96.9407C217.071 96.718 220.188 97.6829 221.821 99.7612C224.122 102.73 221.821 105.996 219.446 108C216.551 110.449 213.36 112.528 209.946 114.086C204.23 116.684 198.738 112.231 199.703 105.848C200.074 103.25 203.414 100.875 206.977 99.2416Z" fill="#FDB790"/>
<path d="M388.602 139.915H186.046C182.928 139.915 180.405 137.391 180.405 134.274C180.405 131.157 182.928 128.633 186.046 128.633H388.602C391.719 128.633 394.243 131.157 394.243 134.274C394.243 137.391 391.719 139.915 388.602 139.915Z" fill="#CCE3FF"/>
<path d="M388.602 162.627H186.046C182.928 162.627 180.405 160.104 180.405 156.986C180.405 153.869 182.928 151.345 186.046 151.345H388.602C391.719 151.345 394.243 153.869 394.243 156.986C394.243 160.104 391.719 162.627 388.602 162.627Z" fill="#CCE3FF"/>
<path d="M388.602 185.34H186.046C182.928 185.34 180.405 182.816 180.405 179.699C180.405 176.581 182.928 174.058 186.046 174.058H388.602C391.719 174.058 394.243 176.581 394.243 179.699C394.243 182.816 391.719 185.34 388.602 185.34Z" fill="#CCE3FF"/>
<path d="M230.654 88.9988C232.361 88.4793 234.068 88.2566 234.959 89.8153C235.775 91.2997 235.256 91.9678 234.291 93.4522C231.619 97.4603 228.279 101.171 224.196 103.769C221.524 105.476 216.923 107.035 214.473 103.844C208.609 95.7532 223.974 90.9286 230.654 88.9988Z" fill="#FDB790"/>
<path d="M192.132 140.881C191.241 143.405 189.757 145.632 188.792 148.155C185.749 155.503 184.932 163.519 184.932 171.387C184.932 175.618 187.456 191.428 186.417 194.174C185.749 191.724 181.74 184.673 175.728 187.791C153.461 205.827 136.316 191.799 138.023 188.236C139.062 186.083 142.773 182.372 143.812 180.22C147.746 172.501 150.567 164.187 148.34 155.578C145.965 146.596 143.515 137.615 141.214 128.56C135.648 106.441 165.114 111.934 168.677 112.305C172.314 112.676 196.14 129.154 192.132 140.881Z" fill="#2B499E"/>
<path d="M169.271 112.825C167.861 109.262 167.118 105.402 167.193 101.543C164.001 101.914 160.364 102.285 157.098 102.508C157.098 103.472 157.172 104.437 157.321 105.402C157.395 106.144 157.544 106.961 157.915 107.629C158.212 108.223 158.731 108.742 159.177 109.262C160.438 110.524 161.7 111.86 163.407 112.453C164.224 112.75 165.04 112.825 165.857 112.825C167.193 112.973 168.009 113.493 169.271 112.825Z" fill="#F4976E"/>
<path d="M210.168 114.829C204.527 122.993 194.581 126.853 185.229 130.193C182.928 131.01 180.553 131.9 178.029 132.049C175.506 132.197 172.908 131.603 171.127 129.896C167.118 126.111 166.302 119.357 170.087 115.348C171.72 113.567 174.096 112.602 176.396 111.786C182.037 109.633 187.678 107.407 193.319 105.254C195.695 104.363 198.144 103.398 200.668 103.176C203.191 102.953 205.937 103.547 207.793 105.328C210.02 107.481 209.871 111.711 210.168 114.829Z" fill="#20306D"/>
<path d="M168.529 72.2243C170.458 72.818 171.498 74.8221 172.24 76.6777C174.689 82.4671 176.396 88.7761 175.283 95.0109C175.06 96.3469 174.689 97.683 174.021 98.7963C172.462 101.246 169.568 102.359 166.821 103.176C163.853 104.066 160.587 104.734 157.766 103.472C156.282 102.804 155.094 101.691 154.129 100.503C149.973 95.4563 148.637 88.3308 150.641 82.1702C151.531 79.4239 153.09 76.8261 155.465 75.2674C156.653 74.5252 157.321 73.4861 158.583 72.9665C160.067 72.2985 161.7 72.0016 163.333 71.7789C164.669 71.482 167.267 71.8531 168.529 72.2243Z" fill="#FDB790"/>
<path d="M171.201 70.146C170.533 68.9584 169.271 68.2162 168.083 67.6224C160.661 64.2081 151.086 65.4699 145.297 71.3336C139.507 77.123 139.21 89.9637 144.332 96.4212C148.563 101.765 150.047 103.992 158.806 104.734C160.884 101.023 162.368 93.2295 161.329 89.8153C161.7 89.2957 162.22 88.9246 162.814 88.8503C163.927 88.6277 165.337 89.1472 166.079 88.3308C166.451 87.8854 166.525 87.2917 166.525 86.6979C166.599 85.1392 166.525 83.5805 166.822 82.0218C167.787 80.76 168.677 79.4982 169.494 78.1621C170.756 75.5643 172.537 72.6696 171.201 70.146Z" fill="#8A3622"/>
<path d="M144.703 90.483C145.816 90.483 146.855 90.8541 147.82 91.3737C150.492 92.784 152.719 95.3076 153.313 98.2765C153.461 99.1672 153.461 100.132 152.867 100.8C152.422 101.245 151.828 101.32 151.235 101.394C148.785 101.617 146.336 100.726 144.554 99.093C144.183 98.7219 143.812 98.2765 143.441 97.9054C141.14 95.3076 139.581 90.5573 144.703 90.483Z" fill="#4CB3EF"/>
<path d="M151.68 101.691C151.531 99.8356 151.086 97.98 150.121 96.4213C145 87.8855 130.971 95.679 125.924 100.578C121.322 105.031 118.65 111.711 119.912 118.02C120.432 120.767 121.768 123.439 123.994 125.146C128.67 128.783 135.202 127.818 140.769 128.486C144.925 129.005 149.75 131.084 151.606 135.166C153.461 139.1 151.828 146.225 146.558 146.374C147.523 146.374 149.75 148.081 150.938 148.378C152.645 148.749 154.426 148.823 156.133 148.526C160.141 147.932 163.778 145.854 166.747 143.182C173.65 136.947 177.732 126.185 174.615 117.055C171.498 107.777 160.661 103.027 151.68 101.691Z" fill="#8A3622"/>
<path d="M234.736 93.6007C236.592 92.1162 238.522 90.4833 238.967 88.2566C239.19 87.3659 239.115 86.401 239.338 85.5103C239.561 84.6939 240.08 83.9516 240.229 83.1352C240.6 81.0569 238.893 79.2013 238.522 77.123C238.151 75.2674 238.744 72.8923 237.26 71.7047C236.592 71.5563 236.072 72.1501 235.775 72.7438C234.291 75.787 234.588 79.2755 233.994 82.4671C233.697 84.2485 233.029 85.6588 232.213 87.2175C231.47 88.7019 231.396 89.9637 230.877 91.5224C230.357 93.3038 228.576 94.5656 228.427 96.4212C228.427 96.7923 228.427 97.1634 228.65 97.3861C229.021 97.7572 229.689 97.683 230.134 97.3861C231.916 96.347 233.178 94.7883 234.736 93.6007Z" fill="#FDB790"/>
<path d="M230.951 79.1271C231.099 79.8693 231.47 80.5373 231.619 81.2053C232.213 83.432 231.396 85.8072 231.025 88.1081C231.025 88.3308 230.951 88.5535 231.025 88.7019C231.248 89.1472 231.916 88.9988 232.361 88.7019C233.177 88.1081 233.623 87.2174 233.845 86.2525C234.068 85.2876 234.068 84.3227 234.068 83.3578C234.068 82.2445 233.994 81.0569 233.623 80.0177C233.474 79.424 233.252 78.8302 233.029 78.2364C232.213 76.0097 230.58 77.0488 230.951 79.1271Z" fill="#FDB790"/>
<path d="M368.117 101.914C382.67 101.914 394.467 90.1167 394.467 75.5644C394.467 61.012 382.67 49.215 368.117 49.215C353.565 49.215 341.768 61.012 341.768 75.5644C341.768 90.1167 353.565 101.914 368.117 101.914Z" fill="#CCE3FF"/>
<path d="M450.43 181.184C453.102 190.091 454.958 196.92 454.215 207.014C453.696 213.694 442.043 246.056 451.098 312.115C451.618 315.826 451.618 319.686 450.133 323.1C444.269 325.549 437.144 325.178 431.651 322.061C431.355 318.201 431.503 313.896 432.468 310.111C429.499 295.637 408.865 241.751 429.573 183.56C429.87 182.224 430.315 180.739 431.503 179.997C432.319 179.477 433.284 179.403 434.175 179.403C439.519 179.106 445.086 181.481 450.43 181.184Z" fill="#20306D"/>
<path d="M439.594 181.036C441.746 210.651 429.128 233.883 411.24 266.839C416.065 282.351 425.12 317.905 424.675 319.983C424.007 320.577 423.339 321.17 422.596 321.69C418.366 324.956 413.318 327.183 407.974 327.405C400.255 307.884 389.715 287.324 387.711 267.581C388.899 248.209 405.599 187.048 406.564 178.141L439.594 181.036Z" fill="#2B499E"/>
<path d="M414.654 62.4267C413.021 64.6534 411.982 67.3997 412.279 70.146C412.353 71.0367 412.65 72.0016 412.65 72.8923C412.65 73.9314 412.353 74.9705 412.057 76.0097C411.017 80.0177 410.498 84.3227 412.205 88.1081C412.576 88.8504 412.947 89.5926 413.615 90.1122C414.803 91.1513 416.51 91.2997 418.069 91.1513C425.714 90.5575 432.245 84.3969 434.769 77.1972C436.402 72.4469 436.55 66.9544 434.027 62.501C432.023 58.864 428.163 56.3404 424.007 56.1177C420.073 55.8208 416.807 59.3836 414.654 62.4267Z" fill="#FDB790"/>
<path d="M423.042 93.2294C423.858 92.7099 424.897 92.5614 425.862 92.413C430.241 91.745 435.14 94.7881 439.593 95.085C439 90.4832 438.406 82.6897 438.703 78.0136C436.253 75.2673 433.062 73.1148 429.499 72.0757C427.05 71.3335 424.155 71.1108 422.077 72.521C422.967 76.6033 421.409 79.4238 419.33 80.0919L423.042 93.2294Z" fill="#F4976E"/>
<path d="M449.985 177.77L484.721 179.255C488.358 179.403 491.402 176.434 491.402 172.797L491.03 141.623C490.956 138.135 488.136 135.24 484.573 135.314L443.973 135.611L449.985 177.77Z" fill="#4CB3EF"/>
<path d="M422.67 176.805L386.672 176.063C382.887 175.989 379.918 172.871 380.14 169.16L382.219 138.061C382.441 134.572 385.559 131.9 389.196 132.123L431.132 135.017L422.67 176.805Z" fill="#77CAFB"/>
<path d="M422.299 333.12C424.155 333.195 429.944 332.675 431.355 331.562C432.765 330.448 433.804 328.741 433.878 326.885C439.816 327.479 441.894 327.628 447.906 327.257C450.801 331.042 451.321 336.312 449.911 340.84L436.253 341.656C436.105 340.84 434.62 340.543 433.804 340.543C432.988 340.543 432.097 340.914 431.28 341.136C429.499 341.656 427.643 341.582 425.788 341.582C424.526 341.582 423.19 341.508 422.225 340.765C421.186 339.949 420.815 338.539 420.741 337.277C420.741 336.089 421.78 334.159 422.299 333.12Z" fill="#A1ABCE"/>
<path d="M440.039 83.6546C440.261 78.0878 443.23 72.9664 444.269 67.4739C444.641 65.6183 444.715 63.6142 443.824 61.9813C442.933 60.3484 440.855 59.1608 439.148 59.903C439.519 57.9732 438.628 55.895 437.218 54.5589C435.808 53.2229 433.878 52.4065 431.948 51.9611C428.237 51.0704 424.303 51.1447 420.666 52.1838C419.33 52.5549 417.994 53.0745 417.104 54.1136C415.842 55.4496 415.471 57.3794 415.842 59.1608C416.213 60.9422 417.4 62.4266 418.811 63.54C415.545 65.544 413.986 69.9232 415.396 73.486C415.471 71.853 417.623 70.8881 419.108 71.5562C420.592 72.2242 421.334 74.0055 421.186 75.6385C421.037 77.2714 420.221 78.7558 419.256 80.0919C425.417 84.2484 432.913 85.3618 440.039 83.6546Z" fill="#34325F"/>
<path d="M396.989 345.961C396.395 342.621 398.474 339.058 401.591 337.871C402.63 337.5 403.818 337.351 404.931 337.203C406.119 337.054 410.424 337.574 411.611 337.5C412.353 335.347 412.873 333.269 412.947 331.042C415.545 332.601 417.104 332.972 419.998 332.156C422.893 331.339 424.749 329.78 425.714 327.479C429.054 330.968 432.097 335.867 432.617 340.691C432.765 341.508 422.448 346.481 419.553 345.813C418.662 344.18 418.662 344.328 418.44 343.957C416.733 344.774 412.799 346.184 411.685 346.481L396.989 345.961Z" fill="#C7CEE6"/>
<path d="M470.471 170.645C477.644 170.645 483.46 164.829 483.46 157.656C483.46 150.482 477.644 144.666 470.471 144.666C463.297 144.666 457.481 150.482 457.481 157.656C457.481 164.829 463.297 170.645 470.471 170.645Z" fill="#A3C2EF"/>
<path d="M455.626 137.467C456.442 134.646 457.259 131.826 458.001 128.931C459.114 124.923 460.302 120.841 460.302 116.61C460.302 112.528 459.114 108.297 456.294 105.402C454.512 104.215 452.879 103.621 451.766 103.027C448.797 101.469 446.051 99.6872 443.305 97.8316C442.488 94.9368 440.261 92.5617 437.441 91.5226C435.437 90.7803 433.21 90.7803 431.132 90.9288C428.534 91.0772 425.862 91.5226 423.487 92.6359C421.112 93.7493 419.256 95.0111 418.143 97.4604L405.376 98.5738C400.7 99.5387 397.954 106.367 397.954 111.192C397.954 116.016 399.142 120.618 400.7 125.146C406.49 142.217 405.525 160.922 405.822 178.958C408.865 182.892 439.593 189.349 450.43 181.111C450.059 176.509 450.579 150.456 455.626 137.467Z" fill="#C8DDFC"/>
<path d="M357.355 82.6151C357.281 80.6111 357.429 78.8297 357.578 76.7514C357.726 74.6732 357.8 72.5949 356.984 70.7393C356.687 70.0713 356.613 66.8797 355.277 68.0673C354.906 68.3641 354.831 68.8095 354.757 69.2548C354.757 69.7002 354.831 70.1455 354.906 70.5909C355.054 71.5558 354.98 72.5949 354.831 73.5598C354.757 73.9309 354.609 74.3763 354.386 74.5989C353.273 75.8607 352.233 73.2629 351.788 72.5207C350.601 70.5909 349.561 68.5126 348.522 66.5086C348.3 66.0632 348.077 65.6179 347.78 65.2468C347.483 64.8756 347.335 64.5045 346.815 64.5045C346.444 64.5045 346.147 64.8756 346.147 65.321C346.147 65.7663 346.296 66.0632 346.444 66.4343C346.815 67.325 347.261 68.2899 347.632 69.1806C347.78 69.4775 347.929 69.7744 348.077 70.0713C348.374 70.5909 348.745 70.962 348.968 71.5558C348.968 71.63 349.042 71.7784 348.968 71.7784C348.448 71.4815 348.151 70.962 347.854 70.4424C347.112 69.2548 346.444 67.9188 345.85 66.657C345.702 66.2859 345.479 65.9148 345.182 65.6179C344.885 65.321 344.737 65.2468 344.514 65.5436C344.069 65.6921 344.069 66.2859 344.143 66.8055C344.217 67.5477 344.292 68.3642 344.588 69.1064C344.737 69.4775 344.885 69.7744 345.034 70.1455C345.702 71.4073 346.518 72.5207 347.112 73.7825C345.85 72.3722 344.663 70.8135 343.698 69.1806C343.401 68.5868 343.03 67.993 342.362 67.8446C342.288 67.8446 342.213 67.7704 342.139 67.8446C341.991 67.9188 341.991 68.0673 341.991 68.2157C341.916 69.3291 342.436 70.3682 342.956 71.3331C343.624 72.5207 344.292 73.9309 344.885 75.1185C344.069 73.8567 343.03 72.7433 341.842 71.8527C341.397 71.5558 341.174 71.1846 340.655 71.3331C340.58 71.9269 340.877 72.4464 341.174 72.966C344.069 77.7163 347.038 82.5409 351.269 86.1036L358.765 106.441C360.918 106.441 362.773 105.402 364.703 104.437C366.633 103.472 368.414 102.136 369.676 100.355C368.86 99.2412 368.043 98.0536 367.152 96.9403C365.223 94.5651 357.355 82.8378 357.355 82.6151Z" fill="#FDB790"/>
<path d="M456.294 105.402C459.114 108.297 460.302 112.528 460.302 116.61C460.302 120.766 459.114 124.849 458.001 128.931C457.185 131.751 456.368 134.572 455.626 137.467C455.923 136.799 456.145 136.131 456.442 135.537L468.838 135.463C466.759 115.2 460.896 108.445 456.294 105.402Z" fill="#B8CCEB"/>
<path d="M368.636 97.5346C370.566 99.6871 372.347 101.988 373.906 104.363C375.39 106.59 376.652 108.965 377.097 111.563C377.543 114.161 377.023 117.055 375.167 118.985C373.683 120.544 371.456 121.286 369.378 121.064C367.3 120.841 365.296 119.727 363.96 118.095C362.921 116.759 362.253 115.2 361.585 113.641C360.174 110.153 358.764 106.738 357.354 103.25C359.877 101.32 362.549 99.6129 365.444 98.2768C366.335 97.7573 367.597 97.3119 368.636 97.5346Z" fill="#ACC0DC"/>
<path d="M371.456 106.367C374.648 104.883 400.032 99.6127 402.63 99.0189C405.302 98.4252 408.197 98.2767 410.646 99.5385C422.745 105.551 418.588 124.403 402.556 124.552C392.239 124.626 378.953 122.845 368.784 120.989C363.663 120.024 362.03 110.821 371.456 106.367Z" fill="#B8CCEB"/>
<path d="M110.412 276.785C112.119 275.078 113.974 272.999 116.35 273.148C119.096 273.296 120.729 276.414 120.951 279.16C121.1 280.347 121.026 281.683 120.358 282.648C119.987 283.242 119.393 283.613 118.873 284.059C114.197 287.77 110.115 292.297 106.849 297.345C105.958 298.681 104.845 300.239 103.212 300.239C102.767 295.118 102.47 289.922 102.618 284.801C102.692 282.352 103.212 282.277 105.216 280.941C107.072 279.754 108.853 278.343 110.412 276.785Z" fill="#FDB790"/>
<path d="M112.119 283.391C111.525 280.793 109.298 277.824 106.329 278.937C105.513 279.234 101.653 280.273 100.391 281.238C99.5008 281.609 98.6843 282.129 97.8678 282.574C96.3834 283.465 94.7504 284.578 94.2309 286.285C92.9691 290.813 96.5318 295.786 96.0122 300.388C95.3442 306.029 90.6681 310.185 91.633 316.198C92.1526 319.612 96.3834 325.698 101.876 320.354C105.661 316.717 103.583 298.31 111.748 291.258C112.787 290.368 111.377 289.848 111.673 288.512C112.119 286.953 112.341 285.321 112.045 283.688C112.119 283.539 112.119 283.465 112.119 283.391Z" fill="#7774F7"/>
<path d="M101.505 283.465C100.317 282.648 95.4926 281.387 94.2308 286.285C93.7855 288.067 93.6371 292.446 93.0433 296.825C92.1526 303.505 89.629 307.513 91.633 316.197C92.0041 317.83 92.7464 319.463 93.8597 320.651C102.544 328.667 101.876 308.775 101.059 300.685C103.138 292.149 105.958 286.656 101.505 283.465Z" fill="#B4B3FF"/>
</g>
<defs>
<clipPath id="clip0_56_1931">
<rect width="585" height="346" fill="white"/>
</clipPath>
</defs>
</svg>
