<svg width="585" height="346" viewBox="0 0 585 346" fill="none" xmlns="http://www.w3.org/2000/svg">
<path d="M127.773 142.802C139.739 131.585 155.6 126.743 171.066 123.065C186.531 119.387 202.449 116.384 216.165 107.803C237.388 94.5627 250.144 70.167 264.763 48.836C269.674 41.6644 275.149 34.4928 282.6 30.6311C296.146 23.6434 312.346 29.3439 325.384 37.3124C338.423 45.2809 350.841 55.7012 365.573 58.6434C403.842 66.1828 435.789 21.4368 474.623 20.0883C485.291 19.7205 495.903 22.7853 505.78 27.1986C528.189 37.1898 548.847 56.4367 553.814 82.181C559.346 110.867 544.557 139.186 529.148 163.214C503.014 204.037 471.406 243.634 428.734 261.594C414.736 267.478 399.947 270.85 385.102 273.547C355.582 278.941 321.659 280.596 299.589 258.652C289.994 249.089 283.559 235.85 272.722 228.004C255.563 215.561 232.59 220.219 213.06 227.329C193.53 234.44 173.211 243.757 153.003 239.282C113.944 230.578 96.3899 172.286 127.773 142.802Z" fill="#DBB7F8"/>
<path d="M282.631 154.144C274.936 162.4 264.414 168.179 252.007 169.673C240.15 171.089 228.057 170.617 216.435 173.33C160.879 186.303 142.78 257.344 86.3992 267.447C77.4081 269.059 67.6318 268.548 59.9364 263.634C19.0253 237.49 75.2879 183.001 77.0155 152.218C77.4474 144.591 75.3272 135.903 68.6526 132.207C50.4743 122.064 23.1085 119.155 31.5892 90.2984C41.6795 55.8593 83.533 37.8535 115.532 32.2316C149.336 26.2951 185.732 29.5189 217.888 41.549C244.272 51.4168 281.336 71.7028 292.486 99.3406C300.496 119.037 295.627 140.149 282.631 154.144Z" fill="#DEFBFD"/>
<path d="M338.949 109.104H145.874C137.24 109.104 130.176 103.939 130.176 97.626V19.4782C130.176 13.1652 137.24 8 145.874 8H338.949C347.583 8 354.646 13.1652 354.646 19.4782V97.626C354.646 103.939 347.583 109.104 338.949 109.104Z" fill="#CCE3FF"/>
<path d="M177.946 93.3358C197.156 93.3358 212.729 77.7627 212.729 58.5522C212.729 39.3418 197.156 23.7687 177.946 23.7687C158.735 23.7687 143.162 39.3418 143.162 58.5522C143.162 77.7627 158.735 93.3358 177.946 93.3358Z" fill="#B2CFF2"/>
<rect x="222.005" y="23.7686" width="116.873" height="13.9134" rx="6.95671" fill="#B2CFF2"/>
<rect x="222.005" y="51.5955" width="116.873" height="13.9134" rx="6.95671" fill="#B2CFF2"/>
<rect x="222.005" y="79.4222" width="116.873" height="13.9134" rx="6.95671" fill="#B2CFF2"/>
<path d="M175.299 38.4065C176.132 35.8428 179.759 35.8428 180.592 38.4065L183.881 48.528C184.254 49.6745 185.322 50.4508 186.527 50.4508H197.17C199.865 50.4508 200.986 53.9002 198.805 55.4847L190.196 61.7401C189.22 62.4487 188.812 63.7047 189.185 64.8512L192.473 74.9726C193.306 77.5363 190.372 79.6682 188.191 78.0838L179.581 71.8284C178.606 71.1198 177.286 71.1198 176.31 71.8284L167.7 78.0838C165.52 79.6682 162.585 77.5363 163.418 74.9726L166.707 64.8512C167.08 63.7047 166.671 62.4487 165.696 61.7401L157.086 55.4847C154.905 53.9002 156.026 50.4508 158.722 50.4508H169.364C170.57 50.4508 171.638 49.6745 172.011 48.528L175.299 38.4065Z" fill="white"/>
<path d="M287.871 197.55H58.2259C51.8842 197.55 46.6956 192.363 46.6956 186.022V112.818C46.6956 106.478 51.8842 101.29 58.2259 101.29H287.871C294.213 101.29 299.401 106.478 299.401 112.818V186.022C299.401 192.363 294.213 197.55 287.871 197.55Z" fill="#FCFDFF"/>
<path d="M95.3198 183.93C114.274 183.93 129.64 168.564 129.64 149.61C129.64 130.656 114.274 115.29 95.3198 115.29C76.3655 115.29 61 130.656 61 149.61C61 168.564 76.3655 183.93 95.3198 183.93Z" fill="#CCE3FF"/>
<rect x="88" y="132.506" width="14.3333" height="38.7843" rx="0.843137" fill="white"/>
<rect x="92.2157" y="128.29" width="5.90196" height="5.05882" rx="0.843137" fill="white"/>
<rect x="139.452" y="114.29" width="145.627" height="13.9134" rx="6.95671" fill="#CCE3FF"/>
<rect x="139.452" y="142.117" width="145.627" height="13.9134" rx="6.95671" fill="#CCE3FF"/>
<rect x="139.452" y="169.944" width="145.627" height="13.9134" rx="6.95671" fill="#CCE3FF"/>
<path d="M257.594 148.062H520.338C530.219 148.062 538.304 142.882 538.304 136.551V52.9033C538.304 46.5722 530.219 41.3922 520.338 41.3922H257.594C247.713 41.3922 239.629 46.5722 239.629 52.9033V136.647C239.629 142.882 247.713 148.062 257.594 148.062Z" fill="#FCFCFF"/>
<path d="M287.711 129.712C307.434 129.712 323.422 113.724 323.422 94.0012C323.422 74.2785 307.434 58.29 287.711 58.29C267.988 58.29 252 74.2785 252 94.0012C252 113.724 267.988 129.712 287.711 129.712Z" fill="#DCEBFD"/>
<path d="M282.991 110.631L281 73.29H285.375H293.6L291.609 110.631C291.587 111.178 291.128 111.615 290.559 111.615H291.15C291.456 111.615 291.697 111.856 291.697 112.162V114.743C291.697 115.049 291.456 115.29 291.15 115.29H285.2H283.428H283.297C283.078 115.29 282.903 115.115 282.903 114.896V114.765V112.184V112.053C282.903 111.834 283.078 111.659 283.297 111.659H283.428H284.019C283.472 111.615 283.012 111.178 282.991 110.631Z" fill="white"/>
<rect x="334.24" y="58.0881" width="188.295" height="14.841" rx="7.42049" fill="#DCEBFD"/>
<rect x="334.24" y="86.8425" width="188.295" height="14.841" rx="7.42049" fill="#DCEBFD"/>
<rect x="334.24" y="115.597" width="188.295" height="14.841" rx="7.42049" fill="#DCEBFD"/>
<path d="M357.591 224.951C359.993 204.873 360.954 184.603 360.473 164.332C360.377 160.49 360.281 156.359 362.203 153.188C363.26 151.555 364.701 150.306 366.142 149.154C370.562 145.791 375.367 142.909 380.363 140.7C381.901 140.027 383.822 139.355 385.264 140.315C386.705 141.276 386.897 144.35 385.264 144.734C388.915 141.66 393.527 141.852 397.274 138.874C398.331 138.01 399.196 136.953 400.253 136.28C401.31 135.608 402.751 135.32 403.808 135.992C404.865 136.761 405.153 138.778 404.096 139.547C405.249 139.355 406.499 140.123 406.883 141.468C407.267 142.717 406.787 144.254 405.826 144.927C406.787 143.966 408.42 145.311 408.42 146.752C408.42 148.193 407.363 149.346 406.306 150.21C405.249 151.075 404.096 151.843 403.52 153.188C404.096 153.092 404.096 154.053 403.712 154.629C401.022 159.049 396.602 161.642 392.47 164.236C387.185 167.406 381.901 170.577 376.616 173.747C379.595 188.061 380.94 202.856 380.651 217.554C380.555 221.589 380.267 225.816 378.249 229.082C374.886 234.462 368.16 235.038 362.299 235.134C361.146 235.134 359.993 235.134 359.032 234.654C356.246 233.021 357.207 228.41 357.591 224.951Z" fill="#FDB790"/>
<path d="M259.487 180.213C259.199 187.899 258.046 195.584 256.22 203.078C255.932 204.423 255.452 205.864 254.202 206.44C267.462 208.169 281.683 201.444 288.409 189.916C290.619 186.074 292.156 181.462 291.003 177.139C289.37 170.799 282.163 166.86 275.726 167.532C269.192 168.301 263.331 174.834 259.487 180.213Z" fill="#DF7842"/>
<path d="M275.822 110.084C265.925 115.367 258.622 124.398 251.608 133.236C249.782 135.542 247.957 137.847 246.708 140.537C245.074 144.092 244.209 148.607 240.558 149.952C239.789 150.24 238.925 150.432 238.444 151.009C238.156 151.393 238.06 151.969 238.06 152.45C238.06 154.659 239.405 156.869 241.423 157.925C240.558 164.554 241.423 171.567 243.825 177.908C244.402 179.349 245.074 180.886 246.131 182.135C247.284 183.576 248.918 184.536 250.647 185.401C253.914 186.938 257.565 187.61 261.121 187.514C268.423 187.13 275.245 183.191 280.338 177.908C285.43 172.624 288.985 165.995 292.156 159.367C294.655 154.083 297.057 148.607 298.018 142.843C298.882 137.751 298.786 132.467 297.633 127.472C296.384 121.996 293.79 116.712 289.562 113.062C285.334 109.315 280.722 107.394 275.822 110.084Z" fill="#FDB790"/>
<path d="M272.459 107.586C265.829 107.298 258.911 107.106 253.145 110.372C247.765 113.35 244.306 119.018 243.153 125.07C242 131.123 243.911 136.365 246.121 142.033C253.077 130.438 255.932 127.76 262.658 121.324C267.078 117.001 271.21 113.542 272.459 107.586Z" fill="#8A3622"/>
<path d="M171.61 196.448C170.984 211.235 170.357 225.927 169.64 240.715C169.192 250.732 168.744 260.94 166.416 270.671C164.804 277.635 162.296 290.419 153.787 290.896C149.846 291.087 146.174 288.606 143.846 285.267C140.8 281.07 139.546 275.632 139.457 270.289C139.367 264.947 140.352 259.7 141.338 254.452C145.189 234.8 149.757 215.338 154.952 196.067C154.504 195.685 154.593 195.685 154.862 195.113C156.026 192.727 157.28 190.438 159.161 188.625C161.042 186.813 163.55 185.668 166.058 186.24C168.655 186.908 170.536 189.484 171.342 192.25C172.058 195.017 171.969 197.879 171.79 200.741" fill="#FDB790"/>
<path d="M194.757 291.857C188.014 295.225 180.473 295.995 173.108 295.321C165.744 294.648 158.557 292.723 151.459 290.702C149.862 290.221 147.91 289.354 147.821 287.526C147.555 280.597 149.685 274.341 154.476 269.626C159.267 264.91 165.212 262.119 171.068 259.424C172.753 258.654 174.528 257.788 176.214 257.018C180.916 254.805 185.619 252.591 190.587 251.629C195.556 250.57 200.968 250.763 205.493 253.265C210.018 255.767 213.567 260.772 213.656 266.353C213.656 269.144 212.858 271.839 211.704 274.341C208.421 281.655 201.589 288.392 194.757 291.857Z" fill="#FDB790"/>
<path d="M368.575 313.155H237.136C237.048 313.251 236.784 312.771 236.696 312.867C232.04 310.373 229.492 304.617 228.437 299.149C228.086 297.423 227.91 295.792 228.086 294.065C213.765 295.696 199.531 297.039 185.21 297.71C179.411 291.667 175.897 282.937 175.633 274.112C175.458 265.287 178.533 256.461 184.068 250.034C192.766 239.961 208.405 240.825 219.3 233.822C224.747 230.368 229.931 226.244 235.642 223.174C241.704 219.912 248.206 217.994 254.708 216.267C263.933 213.965 273.246 212.142 282.56 211.087C290.203 210.127 297.935 209.648 305.491 211.279C311.026 212.526 316.298 214.828 321.482 217.322C327.808 220.296 334.046 223.462 339.757 227.682C351.882 236.604 361.195 250.226 365.5 265.478C370.157 281.115 370.069 296.751 368.575 313.155Z" fill="#2B499E"/>
<path d="M153.539 189.735C152.373 191.743 149.236 191.169 147.891 189.257C146.637 187.345 146.726 184.668 147.174 182.373C147.623 179.6 148.429 176.827 149.505 174.15C150.222 172.238 151.567 170.23 153.449 170.23C153.36 168.126 154.435 165.927 156.138 164.78C157.124 164.11 158.2 163.728 159.097 162.963C159.724 162.389 160.172 161.624 160.8 160.955C163.13 158.373 165.371 158.851 167.254 161.815C167.433 155.314 163.937 147.282 164.027 144.222C164.027 143.457 164.206 142.597 164.654 142.119C165.371 141.354 166.626 141.449 167.433 142.023C168.24 142.597 168.778 143.648 169.226 144.605C175.59 158.086 171.915 185.624 170.481 201.018C169.136 202.356 166.178 199.87 164.475 200.54C162.413 201.305 151.477 205.512 152.105 202.835C154.883 192.795 153.808 192.317 153.539 189.735Z" fill="#FDB790"/>
<path d="M254.561 152.42C253.912 151.956 253.263 151.492 252.428 151.214C251.315 150.75 250.202 150.565 249.089 150.472C248.996 149.545 249.274 148.617 250.016 147.875C251.315 146.484 253.356 146.298 254.654 147.504C255.953 148.71 256.046 150.843 254.747 152.234C254.654 152.327 254.561 152.42 254.561 152.42Z" fill="#231F20"/>
<path d="M263.002 143.793L252.706 139.805C251.872 139.527 250.944 139.898 250.666 140.733C250.295 141.567 250.666 142.495 251.501 142.866L261.889 146.762C262.724 147.04 263.652 146.669 263.93 145.834C264.301 144.999 263.837 144.072 263.002 143.793Z" fill="#A7523F"/>
<path d="M241.483 169.023C241.576 170.693 241.854 172.27 242.132 173.847C244.637 174.681 250.759 173.754 251.964 169.487C247.698 171.899 243.338 170.507 241.483 169.023Z" fill="white"/>
<path d="M432.153 256.491C428.118 240.832 414.474 227.191 398.331 226.614C391.893 226.326 385.456 228.055 379.018 228.055C372.58 228.055 365.374 225.75 362.491 219.986C357.399 209.802 368.256 195.2 360.377 186.938C354.804 181.078 343.178 183.191 339.238 176.082C337.221 172.432 338.278 167.917 339.046 163.882C341.929 148.703 339.527 132.275 330.783 119.595C311.95 92.1191 269.192 88.8528 255.355 114.695C254.875 119.979 244.594 136.791 275.726 177.716C278.224 180.982 277.455 185.401 276.975 189.34C277.071 189.436 277.263 189.628 277.359 189.724C279.281 191.453 281.395 193.086 282.356 195.488C284.469 200.484 281.01 205.96 278.608 210.955C274.765 218.737 273.323 227.959 275.63 236.317C276.014 237.758 276.59 239.295 277.743 240.256C282.067 244.099 287.929 237.278 293.694 236.413C299.459 235.549 304.359 241.505 304.647 247.269C304.936 253.033 302.149 258.509 299.459 263.6C296.768 268.692 293.982 274.264 294.558 280.028C295.327 289.058 304.551 295.783 313.583 295.879C319.829 295.975 326.939 293.862 331.744 297.801C335.587 300.971 335.971 306.639 337.221 311.442C341.929 329.503 363.164 339.878 381.516 336.612C399.869 333.346 414.858 319.224 423.986 302.892C431.865 288.962 436.189 272.054 432.153 256.491Z" fill="#8A3622"/>
<path d="M281.587 179.925C279.473 183.768 276.494 187.226 272.939 189.916C267.27 194.335 260.352 196.641 253.626 199.139C246.9 201.637 240.078 204.519 234.985 209.514C229.893 214.51 226.914 222.387 229.412 229.112C240.846 221.811 254.491 217.968 267.943 219.025C272.074 219.313 276.206 220.082 280.434 219.986C284.566 219.89 288.889 218.929 292.156 216.335C295.712 213.453 297.537 208.842 298.402 204.327C299.459 199.043 299.651 193.375 297.345 188.571C294.943 183.672 286.872 179.253 281.587 179.925Z" fill="#8A3622"/>
</svg>
