<svg width="585" height="346" viewBox="0 0 585 346" fill="none" xmlns="http://www.w3.org/2000/svg">
<g clip-path="url(#clip0_56_1930)">
<path d="M474.065 257.863C457.92 262.718 441.105 259.924 425.186 256.239C409.267 252.553 393.241 248.041 376.691 249.67C351.1 252.155 328.203 268.781 304.992 281.734C297.193 286.091 288.874 290.189 280.249 290.338C264.584 290.577 252.277 277.923 243.917 264.626C235.557 251.329 224.867 239.443 212.65 229.999C180.867 205.562 135.022 228.763 98.6561 212.25C88.6672 207.711 80.2997 200.038 73.2242 191.459C57.1635 172.016 46.9454 144.852 54.1431 118.882C62.1665 89.9445 88.7278 70.6362 113.899 55.5617C156.622 29.9293 203.824 7.92869 251.318 10.9051C266.895 11.8881 282.05 15.5459 296.949 19.8502C326.591 28.3814 358.577 42.3676 368.861 72.659C373.322 85.8489 373.193 100.979 379.582 113.157C389.689 132.457 412.967 138.672 434.197 141.055C455.427 143.439 478.392 144.152 494.949 157.51C526.927 183.381 516.435 245.069 474.065 257.863Z" fill="#DEFBFD"/>
<path d="M315.246 145.452C325.397 140.703 337.234 139.284 349.216 142.512C360.663 145.608 351.075 115.184 375.667 108.099C430.106 92.4151 452.066 58.4338 507.747 70.0475C516.626 71.899 525.442 75.9972 530.706 83.3791C558.689 122.64 486.647 151.954 473.634 179.667C470.406 186.532 469.135 195.321 473.911 201.202C486.892 217.29 511.019 230.123 492.5 253.556C470.427 281.534 425.195 282.589 393.635 275.894C360.295 268.819 358.256 296.199 333.102 273.187C312.461 254.307 285.849 221.869 285.833 192.275C285.764 171.161 298.082 153.521 315.246 145.452Z" fill="#DBB7F8"/>
<mask id="mask0_56_1930" style="mask-type:alpha" maskUnits="userSpaceOnUse" x="60" y="21" width="384" height="274">
<rect width="382.885" height="273.071" transform="matrix(-1 0 0 1 443.273 21.6541)" fill="#C4C4C4"/>
</mask>
<g mask="url(#mask0_56_1930)">
<path d="M188.129 188.553C185.545 176.767 190.255 158.87 199.103 150.604L209.99 145.926L216.536 170.394L205.393 187.174L197.894 211.277L188.129 188.553Z" fill="#F8B68F"/>
<path d="M213.285 170.941L192.183 187.36L206.615 185.264L227.571 161.499C227.571 161.499 225.243 158.153 220.289 162.095C215.787 165.973 213.285 170.941 213.285 170.941Z" fill="#F8B68F"/>
<path d="M220.038 226.252C215.039 212.316 209.994 198.502 204.912 184.601C204.489 183.442 203.672 182.139 203.057 180.825C201.253 178.578 198.53 176.918 195.874 177.295C193.338 177.727 191.46 179.744 190.416 182.139C189.908 183.305 189.375 186 189.375 190.626C191.954 210.418 195.184 230.148 199.149 249.779C200.248 255.004 201.346 260.229 203.474 265.13C205.602 270.032 208.842 274.576 213.263 277.288C216.692 279.481 221.035 280.367 224.602 278.682C232.281 274.984 229.704 262.214 228.527 255.162C226.96 245.325 223.49 235.764 220.084 226.378L220.038 226.252Z" fill="#FDB790"/>
<path d="M236.81 119.828C236.81 119.828 241.984 154.168 219.844 180.71C218.461 182.331 216.218 183.519 213.772 183.781C208.883 184.264 205.525 182.373 202.883 181.549C199.061 180.278 197.268 178.21 196.456 176.541C195.755 175.116 196.022 173.41 197.118 171.976C201.638 165.769 215.704 144.454 210.458 124.882C222.065 116.164 236.81 119.828 236.81 119.828Z" fill="#CCE3FF"/>
<path d="M200.062 180.198C197.679 178.905 197.274 178.051 196.497 176.503C195.796 175.077 196.064 173.371 197.159 171.938C201.679 165.731 215.746 144.416 210.5 124.844C214.613 121.815 219.065 120.316 223.165 119.602C222.995 140.834 217.882 154.881 200.062 180.198Z" fill="#629ADE"/>
<path d="M211.315 155.071C209.412 154.6 208.838 150.3 210.034 145.467C211.23 140.634 213.742 137.098 215.645 137.569C217.549 138.04 218.122 142.34 216.926 147.173C215.731 152.006 213.218 155.542 211.315 155.071Z" fill="#4CB3EF"/>
<path d="M216.013 137.72L214 137.16L214.119 138.163L215.452 138.775L216.013 137.72Z" fill="#4CB3EF"/>
<path d="M211.765 155.116L209.313 154.539L212.119 154.252L211.765 155.116Z" fill="#4CB3EF"/>
<path d="M209.686 154.698C207.783 154.227 207.209 149.927 208.404 145.094C209.599 140.26 212.112 136.724 214.015 137.194C215.918 137.665 216.493 141.965 215.297 146.799C214.102 151.632 211.59 155.169 209.686 154.698Z" fill="#CCE3FF"/>
<path d="M246.528 91.4318L250.275 91.5816C257.45 91.8685 263.086 97.683 262.812 104.539L262.416 114.424C262.142 121.279 256.06 126.625 248.885 126.338L245.139 126.189L246.528 91.4318Z" fill="#4CB3EF"/>
<path d="M143.265 145.949C135.626 145.643 130.307 123.553 131.385 96.6086C132.462 69.6643 139.528 48.0692 147.166 48.3746C154.805 48.68 160.124 70.7703 159.047 97.7147C157.969 124.659 150.904 146.254 143.265 145.949Z" fill="#629ADE"/>
<path d="M160.363 79.7627L149.157 86.4607L148.526 102.245L159.356 112.938L164.083 92.5669L160.363 79.7627Z" fill="#FCFCFF"/>
<path d="M159.047 97.7153C159.952 75.0755 156.328 55.8876 150.609 50.1496C150.609 50.1496 150.61 50.1098 150.65 50.1114C195.165 85.0269 248.722 91.48 248.722 91.48L247.331 126.277C247.331 126.277 174.831 119.306 146.878 144.457C146.878 144.457 146.838 144.455 146.839 144.416C152.995 139.232 158.14 120.395 159.047 97.7153Z" fill="#CCE3FF"/>
<path d="M159.058 96.4381C166.457 99.0894 173.906 101.503 181.444 103.681C203.113 109.897 225.31 113.898 247.678 116.589L247.289 126.315C247.289 126.315 174.79 119.344 146.836 144.495C146.836 144.495 146.796 144.494 146.798 144.454C152.957 139.191 158.1 120.393 159.007 97.7136C159.063 97.3166 159.08 96.8781 159.058 96.4381Z" fill="#4CB3EF"/>
<path d="M148.526 102.245C147.711 102.212 147.193 98.6348 147.368 94.2541C147.543 89.8735 148.345 86.3486 149.16 86.3812C149.974 86.4138 150.493 89.9914 150.318 94.3721C150.142 98.7527 149.34 102.278 148.526 102.245Z" fill="#CCE3FF"/>
<path d="M115.227 56.8589C114.432 57.5932 113.157 57.5422 112.423 56.7468L94.1542 36.7794C93.42 35.984 93.471 34.7093 94.2664 33.975C95.0618 33.2407 96.3366 33.2917 97.0708 34.0871L115.342 53.9695C116.073 54.8499 116.022 56.1247 115.227 56.8589Z" fill="#4CB3EF"/>
<path d="M111.343 141.361C110.609 140.566 109.334 140.515 108.538 141.249L88.5711 159.517C87.7757 160.251 87.7247 161.526 88.459 162.322C89.1932 163.117 90.468 163.168 91.2634 162.434L111.231 144.165C112.026 143.431 112.077 142.156 111.343 141.361Z" fill="#4CB3EF"/>
<path d="M105.992 99.5411C105.948 100.646 104.975 101.543 103.874 101.414L76.8562 100.164C75.7514 100.119 74.854 99.1473 74.9831 98.0459C75.0273 96.9411 75.9995 96.0437 77.1009 96.1728L104.119 97.4234C105.22 97.5525 106.036 98.4363 105.992 99.5411Z" fill="#4CB3EF"/>
<path d="M198.088 169.949C199.094 169.792 202.379 169.691 209.805 164.406C215.375 160.443 212.846 152.174 211.318 147.668C210.896 146.29 209.946 144.169 207.297 144.377L198.983 150.616L198.088 169.949Z" fill="#F8B68F"/>
<path d="M220.344 279.522C228.446 282.168 235.425 271.166 239.456 265.262C259.516 236.345 281.828 200.223 295.757 168.521L295.757 162.126C296.01 159.256 295.193 156.172 293.015 154.607C290.886 153.163 288.134 153.319 285.723 154.325C283.312 155.331 281.312 157.009 279.361 158.809C266.16 171.364 232.289 224.781 222.119 240.821L221.977 241.044C219.154 245.575 216.331 250.107 214.474 255.117C212.618 260.128 211.811 265.65 213.125 270.668C214.082 274.624 216.603 278.269 220.344 279.522Z" fill="#FDB790"/>
<path d="M249.747 261.509C249.16 262.151 248.005 261.73 247.226 261.245C236.838 253.43 228.833 242.81 223.982 230.721C238.949 218.258 264.159 169.243 279.126 156.779C284.265 152.575 294.29 152.608 299.444 156.78C306.816 162.789 303.426 169.143 303.426 181.506C303.426 193.869 278.901 232.926 269.92 243.746C264.118 250.54 255.346 254.44 249.747 261.509Z" fill="#20306D"/>
<path d="M295 119.812C295.166 129.398 294.254 139.044 292.493 148.496C292.226 150.19 289.598 152.371 288.083 153.173C293.199 171.079 324.078 144.727 331.664 129.918C334.153 124.983 335.752 119.138 334.022 113.836C331.557 106.054 322.317 101.643 314.349 102.919C306.268 104.321 299.418 112.853 295 119.812Z" fill="#DF7842"/>
<path d="M289.403 155.48C290.641 155.731 305.189 148.753 313.484 147.453C321.779 146.154 330.985 147.249 337.972 152.05C347.548 158.889 351.076 171.454 352.316 183.196C353.953 199.584 352.158 216.067 350.326 232.241C348.277 249.224 346.026 267.757 342.225 284.479C340.384 292.579 349.887 329.805 345.209 335.211C325.756 333.345 313.263 337.736 294.904 342.458C286.813 344.539 267.62 353.969 261.774 357.362C257.234 333.655 252.987 282.145 253.71 257.968C253.866 251.379 254.33 244.754 253.096 238.33C251.396 229.302 246.284 220.524 247.689 211.283C248.976 202.37 252.088 194.334 256.99 186.868C261.892 179.402 267.965 172.578 274.038 165.755C278.598 160.676 283.139 155.443 289.363 152.512C289.146 153.32 288.165 155.228 289.403 155.48Z" fill="#2B499E"/>
<path d="M310.551 31.4C298.592 38.6522 290.117 50.3913 281.989 61.8716C279.873 64.8662 277.758 67.8608 276.387 71.2944C274.596 75.8305 273.827 81.51 269.374 83.4332C268.437 83.8444 267.373 84.1425 266.814 84.8928C266.482 85.3908 266.401 86.1149 266.434 86.7128C266.585 89.4633 268.41 92.1221 270.994 93.2999C270.37 101.61 271.924 110.281 275.347 118.01C276.163 119.764 277.105 121.632 278.506 123.115C280.039 124.83 282.138 125.914 284.35 126.872C288.522 128.563 293.113 129.151 297.532 128.789C306.596 127.813 314.819 122.444 320.798 115.52C326.777 108.595 330.751 100.101 334.246 91.6338C336.995 84.8861 339.612 77.9059 340.415 70.6652C341.144 64.2682 340.664 57.6975 338.888 51.5576C336.96 44.8264 333.37 38.4261 327.858 34.1701C322.34 29.7946 316.468 27.7174 310.551 31.4Z" fill="#FDB790"/>
<path d="M306.194 28.5205C297.922 28.6138 289.297 28.8465 282.343 33.3056C275.848 37.3797 271.929 44.6712 270.906 52.2838C269.884 59.8963 272.62 66.2912 275.758 73.1961C283.627 58.2887 286.998 54.7607 294.931 46.2897C300.138 40.6069 305.046 36.02 306.194 28.5205Z" fill="#8A3622"/>
<path d="M296.892 74.2364L283.804 69.9737C282.746 69.6842 281.616 70.2093 281.327 71.2675C280.922 72.3319 281.447 73.4613 282.512 73.8662L295.709 78.0072C296.767 78.2966 297.897 77.7715 298.186 76.7134C298.591 75.6489 297.951 74.5259 296.892 74.2364Z" fill="#A7523F"/>
<path d="M271.03 102.868C271.259 104.94 272.509 111.127 272.963 113.07C276.137 113.939 286.446 109.541 287.657 104.147C282.51 107.44 273.441 104.589 271.03 102.868Z" fill="white"/>
<ellipse cx="286.893" cy="81.6704" rx="2.45034" ry="3.6755" transform="rotate(7.25319 286.893 81.6704)" fill="#231F20"/>
<path d="M333.234 82.8042C328.972 77.0832 322.28 82.0571 319.45 85.8982C312.482 95.3567 316.942 101.134 319.714 103.524C322.485 105.915 327.456 102.952 330.286 99.1105C333.116 95.2686 337.266 88.2159 333.234 82.8042Z" fill="#FDB790"/>
</g>
<path d="M371.787 251.899L367.094 258.107C364.465 261.339 362.612 262.517 357.873 266.361C343.248 277.736 299.445 302.971 299.445 302.971L269.93 307.783C269.93 307.783 268.944 311.636 275.161 312.576C280.812 313.772 286.162 312.037 286.162 312.037C286.162 312.037 285.432 316.456 277.553 322.4C271.528 327.165 255.734 332.936 263.33 337.683C271.966 337.19 283.743 334.597 283.743 334.597C288.783 333.683 293.621 330.817 296.305 326.197L303.17 314.237L370.92 291.476C378.379 289.129 384.97 284.108 390.074 278.055L390.229 277.644L371.787 251.899Z" fill="#F8B68F"/>
<path d="M396.896 278.939C396.794 279.893 395.492 280.273 394.482 280.351C380.139 280.194 366.08 275.985 353.866 268.409C359.025 247.546 325.281 191.802 330.44 170.938C331.33 167.47 332.815 163.992 335.813 161.974C338.811 159.955 342.796 159.824 346.488 159.995C356.97 160.52 367.853 163.536 375.186 170.962C386.332 181.949 404.131 234.47 403.219 249.96C402.503 259.793 397.253 268.993 396.896 278.939Z" fill="#20306D"/>
<path d="M425.906 200.098C419.736 198.546 421.643 181.072 405.443 181.072C375.601 178.782 384.255 148.021 377.608 137.4C373.4 130.657 368.943 127.827 366.524 120.277C365.218 116.341 368.373 100.303 369.935 96.4865C375.601 82.4427 375.886 60.8318 366.524 49.5787C346.044 24.9617 310.974 11.4037 292.487 33.811C287.187 40.9605 281.261 63.2208 315.793 91.3577C316.702 92.1394 317.084 89.586 318.777 86.6683C321.476 82.0153 327.73 78.1419 332.419 81.5525C338.814 86.2033 331.993 98.6051 327.303 102.016C324.319 105 324.372 108.718 324.319 110.116C323.955 119.715 320.259 131.25 317.432 134.842C312.226 141.623 299.369 144.809 299.845 153.346C299.959 154.851 300.239 156.342 301.176 157.616C304.718 162.224 311.697 156.655 317.432 156.895C323.167 157.134 326.706 163.928 325.951 169.532C324.366 181.315 310.954 192.212 309.704 204.117C307.08 226.878 324.885 222.553 333.583 233.176C348.234 250.865 339.249 264.132 366.524 280.999C384.001 291.807 425.799 278.661 437.844 264.472C453.208 246.373 464.275 206.493 425.906 200.098Z" fill="#8A3622"/>
</g>
<defs>
<clipPath id="clip0_56_1930">
<rect width="585" height="346" fill="white"/>
</clipPath>
</defs>
</svg>
