<svg width="66" height="66" viewBox="0 0 66 66" fill="none" xmlns="http://www.w3.org/2000/svg">
<circle cx="33" cy="33" r="33" fill="#7AB6FF"/>
<path d="M29.744 38.384C29.5764 37.2442 29.6099 36.205 29.8446 35.2663C30.1128 34.3276 30.4815 33.456 30.9509 32.6514C31.4202 31.8469 31.9398 31.1093 32.5097 30.4389C33.1131 29.7684 33.683 29.1314 34.2194 28.528C34.7558 27.891 35.1916 27.2876 35.5269 26.7177C35.8956 26.1143 36.08 25.4941 36.08 24.8571C36.08 23.8179 35.7615 23.0301 35.1246 22.4937C34.5211 21.9573 33.7166 21.6891 32.7109 21.6891C31.7722 21.6891 30.9341 21.907 30.1966 22.3429C29.4926 22.7787 28.8053 23.3318 28.1349 24.0023L24.0617 20.2811C25.235 18.9067 26.6263 17.8004 28.2354 16.9623C29.8781 16.1242 31.6884 15.7051 33.6663 15.7051C35.0072 15.7051 36.2476 15.8728 37.3874 16.208C38.5608 16.5432 39.5665 17.0629 40.4046 17.7669C41.2762 18.4709 41.9467 19.376 42.416 20.4823C42.9189 21.555 43.1703 22.829 43.1703 24.304C43.1703 25.3432 42.9859 26.2819 42.6171 27.12C42.2484 27.9246 41.779 28.6789 41.2091 29.3829C40.6728 30.0869 40.0861 30.7741 39.4491 31.4446C38.8457 32.0815 38.2758 32.752 37.7394 33.456C37.2366 34.16 36.8343 34.9143 36.5326 35.7189C36.2309 36.4899 36.1303 37.3783 36.2309 38.384H29.744ZM32.9623 50.6034C31.6884 50.6034 30.6324 50.1676 29.7943 49.296C28.9562 48.3909 28.5371 47.2846 28.5371 45.9771C28.5371 44.6362 28.9562 43.5299 29.7943 42.6583C30.6324 41.7531 31.6884 41.3006 32.9623 41.3006C34.2362 41.3006 35.2922 41.7531 36.1303 42.6583C37.0019 43.5299 37.4377 44.6362 37.4377 45.9771C37.4377 47.2846 37.0019 48.3909 36.1303 49.296C35.2922 50.1676 34.2362 50.6034 32.9623 50.6034Z" fill="white"/>
</svg>
